<?xml version="1.0" ?><svg height="64" id="svg3162" version="1.1" viewBox="0 0 16.933333 16.933334" width="64" xmlns="http://www.w3.org/2000/svg" xmlns:cc="http://creativecommons.org/ns#" xmlns:dc="http://purl.org/dc/elements/1.1/" xmlns:inkscape="http://www.inkscape.org/namespaces/inkscape" xmlns:rdf="http://www.w3.org/1999/02/22-rdf-syntax-ns#" xmlns:sodipodi="http://sodipodi.sourceforge.net/DTD/sodipodi-0.dtd" xmlns:svg="http://www.w3.org/2000/svg"><defs id="defs3156"/><g id="layer1" transform="translate(0,-280.06665)"><path d="m 4.4979243,282.4479 c -0.9296903,0 -1.7014773,0.69256 -1.8308955,1.5875 H 2.3812576 c -0.1492488,-0.002 -0.2673324,0.12019 -0.2645834,0.26768 0.00299,0.14751 0.1190731,0.26326 0.2645834,0.26149 0.1321408,-7e-5 0.3679957,3e-5 0.5291667,0 -1.06e-5,0.87363 0.7138908,1.5875 1.5875,1.5875 H 5.820841 c 0.1454097,-5.3e-4 0.2640727,-0.11919 0.2645833,-0.26459 v -1.32291 c 0.1612001,10e-6 0.3970073,0 0.5291667,0 0.1764401,0 0.2645834,-0.13227 0.2645834,-0.26459 0,-0.13233 -0.088104,-0.26458 -0.2645834,-0.26458 H 6.3288198 C 6.199391,283.14046 5.4276331,282.4479 4.4979243,282.4479 Z m -1.0583334,2.11667 c 0.6979391,5e-5 1.4991875,-6e-5 2.1166668,0 v 1.05833 H 4.4979243 c -0.587629,0 -1.0583334,-0.47069 -1.0583334,-1.05833 z" id="path3111" style="color:#000000;font-style:normal;font-variant:normal;font-weight:normal;font-stretch:normal;font-size:medium;line-height:normal;font-family:sans-serif;font-variant-ligatures:normal;font-variant-position:normal;font-variant-caps:normal;font-variant-numeric:normal;font-variant-alternates:normal;font-feature-settings:normal;text-indent:0;text-align:start;text-decoration:none;text-decoration-line:none;text-decoration-style:solid;text-decoration-color:#000000;letter-spacing:normal;word-spacing:normal;text-transform:none;writing-mode:lr-tb;direction:ltr;text-orientation:mixed;dominant-baseline:auto;baseline-shift:baseline;text-anchor:start;white-space:normal;shape-padding:0;clip-rule:nonzero;display:inline;overflow:visible;visibility:visible;opacity:1;isolation:auto;mix-blend-mode:normal;color-interpolation:sRGB;color-interpolation-filters:linearRGB;solid-color:#000000;solid-opacity:1;vector-effect:none;fill:#000000;fill-opacity:1;fill-rule:nonzero;stroke:none;stroke-width:0.5291667;stroke-linecap:butt;stroke-linejoin:round;stroke-miterlimit:4;stroke-dasharray:none;stroke-dashoffset:0;stroke-opacity:1;paint-order:normal;color-rendering:auto;image-rendering:auto;shape-rendering:auto;text-rendering:auto;enable-background:accumulate"/><path d="m 1.8520909,286.68123 c -0.4351708,0 -0.79375,0.35857 -0.79375,0.79375 v 4.23334 c 0,0.43517 0.3585792,0.79375 0.79375,0.79375 h 0.00106 c 0.68217,1.26162 1.9631978,2.11666 3.4385489,2.11666 2.4487506,0 3.924279,-2.1932 3.9687501,-3.96875 0,-0.16004 -0.127373,-0.26458 -0.2645833,-0.26458 -0.1357709,0 -0.2645833,0.11697 -0.2645833,0.26458 -0.1087703,1.75248 -1.336347,3.13512 -2.9104168,3.39256 v -3.75791 l 1.2050951,0.60152 c 0.057076,0.0286 0.091197,0.0284 0.1177978,0.0284 0.022887,0 0.086704,-1.7e-4 0.1576123,-0.0522 l 2.1171853,-1.5875 c 0.1089686,-0.0813 0.1064525,-0.18589 0.1064525,-0.21239 0,-0.14553 -0.1190546,-0.26458 -0.2645834,-0.26458 0,0 -0.025559,1.4e-4 -0.033073,0.002 l -1.9626713,0.24391 c -0.2070285,-0.23895 -0.5141463,-0.75055 -0.8614463,-1.25574 -0.1869387,-0.27191 -0.3845507,-0.5334 -0.6035807,-0.73845 -0.2190301,-0.20515 -0.4712309,-0.36851 -0.7725622,-0.36851 h -0.79375 c -0.2711609,0 -0.4902756,0.15494 -0.6537061,0.37362 -0.1412319,-0.22299 -0.3882999,-0.37362 -0.6692106,-0.37362 z m 0,0.52917 h 1.0583334 c 0.1511591,0 0.2645833,0.11342 0.2645833,0.26458 v 1.05834 3.175 c 0,0.15117 -0.1134242,0.26458 -0.2645833,0.26458 H 1.8520909 c -0.1511591,0 -0.2645833,-0.11341 -0.2645833,-0.26458 v -4.23334 c 0,-0.15116 0.1134242,-0.26458 0.2645833,-0.26458 z m 1.3229167,5.24206 v 0.85628 C 2.9030371,293.08031 2.6642427,292.8086 2.4665249,292.50207 h 0.4438994 c 0.093099,0 0.1812739,-0.0195 0.2645833,-0.0496 z" id="path3121" style="color:#000000;font-style:normal;font-variant:normal;font-weight:normal;font-stretch:normal;font-size:medium;line-height:normal;font-family:sans-serif;font-variant-ligatures:normal;font-variant-position:normal;font-variant-caps:normal;font-variant-numeric:normal;font-variant-alternates:normal;font-feature-settings:normal;text-indent:0;text-align:start;text-decoration:none;text-decoration-line:none;text-decoration-style:solid;text-decoration-color:#000000;letter-spacing:normal;word-spacing:normal;text-transform:none;writing-mode:lr-tb;direction:ltr;text-orientation:mixed;dominant-baseline:auto;baseline-shift:baseline;text-anchor:start;white-space:normal;shape-padding:0;clip-rule:nonzero;display:inline;overflow:visible;visibility:visible;opacity:1;isolation:auto;mix-blend-mode:normal;color-interpolation:sRGB;color-interpolation-filters:linearRGB;solid-color:#000000;solid-opacity:1;vector-effect:none;fill:#000000;fill-opacity:1;fill-rule:nonzero;stroke:none;stroke-width:0.5291667;stroke-linecap:butt;stroke-linejoin:round;stroke-miterlimit:4;stroke-dasharray:none;stroke-dashoffset:0;stroke-opacity:1;paint-order:normal;color-rendering:auto;image-rendering:auto;shape-rendering:auto;text-rendering:auto;enable-background:accumulate"/><path d="m 10.58332,288.79789 a 0.26458335,0.26458335 0 0 1 -0.26459,0.26459 0.26458335,0.26458335 0 0 1 -0.26458,-0.26459 0.26458335,0.26458335 0 0 1 0.26458,-0.26458 0.26458335,0.26458335 0 0 1 0.26459,0.26458 z" id="path2328" style="display:inline;opacity:1;fill:#000000;fill-opacity:1;stroke:none;stroke-width:0.52916676;stroke-linecap:butt;stroke-linejoin:round;stroke-miterlimit:4;stroke-dasharray:none;stroke-dashoffset:0;stroke-opacity:1;paint-order:normal"/><path d="m 13.57108,283.58323 -4.23242,4.23438 c -0.0783,0.0783 -0.0783,0.16004 -0.0783,0.18654 3e-5,0.14552 0.11907,0.26461 0.26459,0.26458 0.0265,0 0.10864,0 0.18672,-0.0781 l 4.04687,-4.04492 0.3418,0.3418 c 0.0771,0.0771 0.16065,0.0771 0.18715,0.0771 0.14552,-2e-5 0.26459,-0.11907 0.26458,-0.26459 0,-0.0265 0,-0.11074 -0.0767,-0.18747 l -0.5293,-0.5293 c -0.0573,-0.0577 -0.11879,-0.077 -0.18772,-0.077 -0.0721,0 -0.14522,0.0347 -0.18724,0.077 z" id="path2330" style="color:#000000;font-style:normal;font-variant:normal;font-weight:normal;font-stretch:normal;font-size:medium;line-height:normal;font-family:sans-serif;font-variant-ligatures:normal;font-variant-position:normal;font-variant-caps:normal;font-variant-numeric:normal;font-variant-alternates:normal;font-feature-settings:normal;text-indent:0;text-align:start;text-decoration:none;text-decoration-line:none;text-decoration-style:solid;text-decoration-color:#000000;letter-spacing:normal;word-spacing:normal;text-transform:none;writing-mode:lr-tb;direction:ltr;text-orientation:mixed;dominant-baseline:auto;baseline-shift:baseline;text-anchor:start;white-space:normal;shape-padding:0;clip-rule:nonzero;display:inline;overflow:visible;visibility:visible;opacity:1;isolation:auto;mix-blend-mode:normal;color-interpolation:sRGB;color-interpolation-filters:linearRGB;solid-color:#000000;solid-opacity:1;vector-effect:none;fill:#000000;fill-opacity:1;fill-rule:nonzero;stroke:none;stroke-width:0.5291667;stroke-linecap:round;stroke-linejoin:round;stroke-miterlimit:4;stroke-dasharray:none;stroke-dashoffset:0;stroke-opacity:1;color-rendering:auto;image-rendering:auto;shape-rendering:auto;text-rendering:auto;enable-background:accumulate"/><path d="m 14.28749,286.41665 a 0.26458335,0.26458335 0 0 1 -0.26459,0.26459 0.26458335,0.26458335 0 0 1 -0.26458,-0.26459 0.26458335,0.26458335 0 0 1 0.26458,-0.26458 0.26458335,0.26458335 0 0 1 0.26459,0.26458 z" id="path2332" style="display:inline;opacity:1;fill:#000000;fill-opacity:1;stroke:none;stroke-width:0.52916676;stroke-linecap:butt;stroke-linejoin:round;stroke-miterlimit:4;stroke-dasharray:none;stroke-dashoffset:0;stroke-opacity:1;paint-order:normal"/><path d="m 15.34582,286.41664 a 0.26458335,0.26458335 0 0 1 -0.26458,0.26459 0.26458335,0.26458335 0 0 1 -0.26459,-0.26459 0.26458335,0.26458335 0 0 1 0.26459,-0.26458 0.26458335,0.26458335 0 0 1 0.26458,0.26458 z" id="path2334" style="display:inline;opacity:1;fill:#000000;fill-opacity:1;stroke:none;stroke-width:0.52916676;stroke-linecap:butt;stroke-linejoin:round;stroke-miterlimit:4;stroke-dasharray:none;stroke-dashoffset:0;stroke-opacity:1;paint-order:normal"/><path d="m 14.81665,287.47498 a 0.26458335,0.26458335 0 0 1 -0.26458,0.26458 0.26458335,0.26458335 0 0 1 -0.26458,-0.26458 0.26458335,0.26458335 0 0 1 0.26458,-0.26459 0.26458335,0.26458335 0 0 1 0.26458,0.26459 z" id="path2338" style="display:inline;opacity:1;fill:#000000;fill-opacity:1;stroke:none;stroke-width:0.52916676;stroke-linecap:butt;stroke-linejoin:round;stroke-miterlimit:4;stroke-dasharray:none;stroke-dashoffset:0;stroke-opacity:1;paint-order:normal"/><path d="m 13.75832,287.47498 a 0.26458335,0.26458335 0 0 1 -0.26458,0.26458 0.26458335,0.26458335 0 0 1 -0.26459,-0.26458 0.26458335,0.26458335 0 0 1 0.26459,-0.26459 0.26458335,0.26458335 0 0 1 0.26458,0.26459 z" id="path2340" style="display:inline;opacity:1;fill:#000000;fill-opacity:1;stroke:none;stroke-width:0.52916676;stroke-linecap:butt;stroke-linejoin:round;stroke-miterlimit:4;stroke-dasharray:none;stroke-dashoffset:0;stroke-opacity:1;paint-order:normal"/><path d="m 15.87499,287.47499 a 0.26458335,0.26458335 0 0 1 -0.26459,0.26458 0.26458335,0.26458335 0 0 1 -0.26458,-0.26458 0.26458335,0.26458335 0 0 1 0.26458,-0.26459 0.26458335,0.26458335 0 0 1 0.26459,0.26459 z" id="path2342" style="display:inline;opacity:1;fill:#000000;fill-opacity:1;stroke:none;stroke-width:0.52916676;stroke-linecap:butt;stroke-linejoin:round;stroke-miterlimit:4;stroke-dasharray:none;stroke-dashoffset:0;stroke-opacity:1;paint-order:normal"/><path d="m 14.81665,285.35832 a 0.26458335,0.26458335 0 0 1 -0.26458,0.26458 0.26458335,0.26458335 0 0 1 -0.26458,-0.26458 0.26458335,0.26458335 0 0 1 0.26458,-0.26459 0.26458335,0.26458335 0 0 1 0.26458,0.26459 z" id="path2344" style="display:inline;opacity:1;fill:#000000;fill-opacity:1;stroke:none;stroke-width:0.52916676;stroke-linecap:butt;stroke-linejoin:round;stroke-miterlimit:4;stroke-dasharray:none;stroke-dashoffset:0;stroke-opacity:1;paint-order:normal"/></g></svg>