<?xml version="1.0" ?><svg id="Layer_1" style="enable-background:new 0 0 427.813 427.813;" version="1.1" viewBox="0 0 427.813 427.813" xml:space="preserve" xmlns="http://www.w3.org/2000/svg" xmlns:xlink="http://www.w3.org/1999/xlink"><g><path d="M418.445,295.13v-27.678v-31.049c0-13.526-11.004-24.531-24.531-24.531h-27.207l-19.358-81.06h14.705c2.761,0,5-2.239,5-5   c0-20.022-16.29-36.312-36.312-36.312h-77.207v-4.878c0-11.513-9.367-20.88-20.88-20.88H60.109c-11.513,0-20.88,9.367-20.88,20.88   V89.5H22.99c-2.761,0-5,2.239-5,5v197.87C7.95,293.104,0,301.487,0,311.711c0,10.704,8.708,19.413,19.413,19.413h25.394   c6.504,19.135,24.633,32.947,45.939,32.947c21.306,0,39.435-13.812,45.939-32.947h81.521c6.504,19.135,24.633,32.947,45.939,32.947   c21.307,0,39.436-13.812,45.939-32.947h98.317c10.704,0,19.413-8.708,19.413-19.413C427.813,304.686,424.05,298.539,418.445,295.13   z M408.401,292.298h-16.916v-12.736c0-3.921,3.189-7.11,7.11-7.11h9.849v19.846H408.401z M350.194,185.777l6.232,26.095h-79.516   v-63.865h64.265L350.194,185.777z M338.786,138.007h-66.877c-2.761,0-5,2.239-5,5v73.865c0,2.761,2.239,5,5,5h90.851h31.154   c8.012,0,14.531,6.519,14.531,14.531v26.049h-9.849c-9.435,0-17.11,7.676-17.11,17.11v12.736h-74.774   c-8.25-15.04-24.236-25.261-42.567-25.261c-4.724,0-9.288,0.691-13.609,1.956V130.812h86.532L338.786,138.007z M243.536,84.623   V89.5h-61.089V73.743h50.209C238.655,73.743,243.536,78.624,243.536,84.623z M111.479,89.5V73.743h60.967V89.5H111.479z    M49.229,84.623c0-5.999,4.881-10.88,10.88-10.88h41.371V89.5h-52.25V84.623z M330.742,99.5c12.799,0,23.494,9.186,25.835,21.312   h-15.563h-95.479c-2.761,0-5,2.239-5,5V273.19c-7.97,4.46-14.563,11.096-18.958,19.108h-88.265   c-8.25-15.04-24.236-25.261-42.567-25.261c-18.331,0-34.317,10.221-42.567,25.261H27.99V99.5H330.742z M19.413,321.124   c-5.19,0-9.413-4.223-9.413-9.413c0-5.19,4.223-9.413,9.413-9.413h24.672c-1.2,4.217-1.856,8.66-1.856,13.256   c0,1.884,0.119,3.741,0.33,5.57H19.413z M90.746,354.071c-21.238,0-38.517-17.278-38.517-38.517s17.279-38.517,38.517-38.517   s38.517,17.279,38.517,38.517S111.984,354.071,90.746,354.071z M138.933,321.124c0.21-1.829,0.33-3.685,0.33-5.57   c0-4.596-0.656-9.039-1.856-13.256h80.077c-1.2,4.217-1.856,8.66-1.856,13.256c0,1.884,0.119,3.741,0.33,5.57H138.933z    M264.145,354.071c-21.238,0-38.517-17.278-38.517-38.517s17.278-38.517,38.517-38.517s38.517,17.279,38.517,38.517   S285.383,354.071,264.145,354.071z M408.401,321.124h-96.069c0.21-1.829,0.33-3.685,0.33-5.57c0-4.596-0.656-9.039-1.856-13.256   h75.68h21.916c5.19,0,9.413,4.223,9.413,9.413C417.813,316.901,413.591,321.124,408.401,321.124z"/><path d="M264.145,294.82c-11.433,0-20.733,9.301-20.733,20.734s9.301,20.734,20.733,20.734s20.734-9.301,20.734-20.734   S275.577,294.82,264.145,294.82z M264.145,326.288c-5.918,0-10.733-4.815-10.733-10.734s4.815-10.734,10.733-10.734   s10.734,4.815,10.734,10.734S270.063,326.288,264.145,326.288z"/><path d="M90.746,294.82c-11.433,0-20.734,9.301-20.734,20.734s9.301,20.734,20.734,20.734s20.733-9.301,20.733-20.734   S102.179,294.82,90.746,294.82z M90.746,326.288c-5.918,0-10.734-4.815-10.734-10.734s4.815-10.734,10.734-10.734   s10.733,4.815,10.733,10.734S96.665,326.288,90.746,326.288z"/><path d="M65.041,250.749h7.578h40.093h10.062h40.093h9.347h40.093h8.322c2.761,0,5-2.239,5-5V128.99   c0-1.147-0.401-2.19-1.051-3.034c-0.677-1.958-2.518-3.374-4.706-3.374h-30.966h-30.966h-30.966H96.007H65.041   c-2.761,0-5,2.239-5,5v1.408v18.254v98.504C60.041,248.51,62.28,250.749,65.041,250.749z M214.871,133.99v13.254   c0,5.78-4.703,10.483-10.483,10.483s-10.483-4.703-10.483-10.483V133.99H214.871z M183.905,133.99v13.254   c0,5.78-4.703,10.483-10.483,10.483h0c-5.78,0-10.483-4.703-10.483-10.483V133.99H183.905z M152.938,133.99v13.254   c0,5.78-4.703,10.483-10.483,10.483s-10.483-4.703-10.483-10.483V133.99H152.938z M121.973,133.99v13.254   c0,5.78-4.703,10.483-10.483,10.483s-10.483-4.703-10.483-10.483V133.99H121.973z M70.041,133.99h20.966v13.254   c0,5.78-4.703,10.483-10.483,10.483s-10.483-4.703-10.483-10.483V133.99z M80.524,167.728c6.184,0,11.724-2.766,15.483-7.113   c3.759,4.347,9.299,7.113,15.483,7.113s11.724-2.766,15.483-7.113c3.759,4.347,9.299,7.113,15.483,7.113   c6.184,0,11.724-2.766,15.483-7.113c3.759,4.347,9.299,7.113,15.483,7.113c6.184,0,11.724-2.766,15.483-7.113   c3.759,4.347,9.299,7.113,15.483,7.113c4.15,0,8.01-1.249,11.24-3.379v51.486c-0.9-2.388-2.133-4.65-3.705-6.677l-0.07-0.09   c-0.852-1.098-1.321-2.468-1.321-3.858v-11.513c0-2.761-2.239-5-5-5h-26.545c-2.761,0-5,2.239-5,5v11.48   c0,1.384-0.465,2.75-1.312,3.847l-0.117,0.151c-2.628,3.406-4.348,7.453-5.02,11.685c-0.68-4.242-2.412-8.296-5.054-11.702   l-0.07-0.09c-0.852-1.098-1.321-2.469-1.321-3.858v-11.513c0-2.761-2.239-5-5-5h-26.546c-2.761,0-5,2.239-5,5v11.48   c0,1.384-0.465,2.75-1.312,3.847l-0.117,0.152c-3.447,4.468-5.345,10.037-5.345,15.68v15.894h-0.062v-15.862   c0-5.668-1.913-11.257-5.382-15.729l-0.07-0.09c-0.852-1.098-1.321-2.468-1.321-3.858v-11.513c0-2.761-2.239-5-5-5H79.392   c-2.761,0-5,2.239-5,5v11.48c0,1.384-0.465,2.75-1.305,3.839l-0.124,0.16c-1.159,1.503-2.127,3.138-2.922,4.851v-49.217   C73.112,166.65,76.69,167.728,80.524,167.728z M77.619,240.749v-15.894c0-3.445,1.159-6.844,3.258-9.566L81,215.13   c2.187-2.836,3.392-6.371,3.392-9.953v-6.48h16.546v6.513c0,3.598,1.215,7.145,3.415,9.981l0.07,0.09   c2.121,2.734,3.289,6.146,3.289,9.606v15.862H77.619z M127.773,240.749v-15.894c0-3.445,1.159-6.844,3.264-9.574l0.117-0.151   c2.188-2.836,3.393-6.371,3.393-9.953v-6.48h16.546v6.513c0,3.598,1.214,7.145,3.415,9.981l0.07,0.09   c2.121,2.734,3.289,6.146,3.289,9.606v15.862H127.773z M177.213,240.749v-15.894c0-3.445,1.159-6.845,3.264-9.574l0.117-0.152   c2.188-2.836,3.392-6.371,3.392-9.953v-6.48h16.545v6.513c0,3.598,1.215,7.145,3.415,9.981l0.07,0.09   c2.121,2.734,3.289,6.146,3.289,9.606v15.862H177.213z"/></g><g/><g/><g/><g/><g/><g/><g/><g/><g/><g/><g/><g/><g/><g/><g/></svg>